<svg viewBox="0 0 294 106" fill="none" xmlns="http://www.w3.org/2000/svg">
<mask id="mask0_3_55" style="mask-type:alpha" maskUnits="userSpaceOnUse" x="0" y="0" width="127" height="106">
<path d="M127 42.5C127 77.5701 98.5701 106 63.5 106C28.4299 106 0 77.5701 0 42.5C0 7.42992 63.5 0 63.5 0C63.5 0 127 7.42992 127 42.5Z" fill="#C4C4C4"/>
</mask>
<g mask="url(#mask0_3_55)">
<path fill-rule="evenodd" clip-rule="evenodd" d="M51.484 32.2039C49.4818 29.3641 46.652 28.1894 44.6713 29.0658C42.4754 30.0368 42.9172 31.9701 43.3718 32.485C44.9446 34.2682 46.44 36.1182 47.8539 38.0299C49.3355 40.0163 49.5119 42.139 49.5119 42.139C49.6467 43.0498 52.5597 57.4369 66.723 57.4369C80.8863 57.4369 82.738 44.9674 82.738 40.9414C82.738 36.9155 82.738 34.6077 83.6717 28.7603L85.9063 20.638C86.2777 19.2511 85.5376 17.8699 83.8208 17.388C82.104 16.9061 80.7372 17.7667 80.3643 19.1536L78.0781 27.795C76.2479 33.6898 75.1364 32.1867 75.9869 26.758L78.1311 12.5388C78.3592 11.0715 77.3624 9.70755 75.713 9.44221C74.0636 9.17831 72.6881 10.1923 72.4601 11.6596L70.2312 27.2184C69.93 30.031 68.5402 31.494 68.3351 27.6114L67.377 8.37942C67.2924 6.92939 66.1034 5.93975 64.454 6.00285C62.8046 6.06596 61.6888 7.25209 61.7705 8.70357L62.7759 27.4809V27.4823C63.0929 31.4882 61.782 32.1308 61.0749 28.5939L57.5667 12.5789C57.2526 11.2293 55.9259 10.3644 54.1618 10.7904C52.3976 11.2164 51.6647 12.523 51.9774 13.8726L55.9073 31.5356C56.215 33.3163 56.2935 34.6684 56.192 35.6332C58.0981 35.9532 60.0188 36.648 62 38.5507C64.8185 41.2563 65.5232 44.107 65.5 46.0634C65.4813 47.6409 65.1038 48.4009 64.8469 46.0634C64.5342 43.2053 62.4689 37.619 55.687 36.8249C55.4924 36.9808 55.2397 37.0526 54.9133 37.0001C53.7845 36.8191 53.2281 35.6221 52.6107 34.2938C52.2837 33.5901 51.9395 32.8496 51.484 32.2039Z" fill="black"/>
<path d="M59.5 55.5507H75L77.5 107.551H56L59.5 55.5507Z" fill="black"/>
<path fill-rule="evenodd" clip-rule="evenodd" d="M94.3207 47.9386C93.3714 45.4675 91.5002 44.0719 89.8737 44.3498C88.0705 44.6575 88.0362 46.168 88.276 46.6332C89.1052 48.2437 89.8647 49.8892 90.5526 51.565C91.2765 53.3087 91.0109 54.9096 91.0109 54.9096C90.9406 55.6075 90.4088 66.7782 100.871 69.42C111.333 72.0617 115.027 63.1962 115.777 60.2223C116.528 57.2485 116.959 55.5438 118.739 51.3986L121.905 45.8157C122.438 44.8605 122.149 43.7022 120.971 43.026C119.792 42.3498 118.622 42.7305 118.088 43.6855L114.787 49.6422C112.336 53.6552 111.795 52.3376 113.436 48.4862L117.672 38.3828C118.114 37.3415 117.632 36.148 116.464 35.6444C115.294 35.1418 114.089 35.6343 113.647 36.6755L109.099 47.7527C108.352 49.7741 107.052 50.5956 107.625 47.6894L110.504 33.3045C110.712 32.2176 110.019 31.2648 108.788 31.0038C107.558 30.7427 106.513 31.4108 106.302 32.4982L103.543 46.556L103.542 46.5571C103.029 49.5753 101.941 49.8054 102.079 47.0609L102.474 34.5767C102.494 33.5212 101.675 32.6349 100.293 32.6205C98.9102 32.6061 98.1251 33.4345 98.1043 34.4898L97.7127 48.27C97.6079 49.6427 97.4137 50.6561 97.1588 51.3499C98.507 51.9418 99.7963 52.8133 100.905 54.5883C102.482 57.1125 102.471 59.3497 102.089 60.7906C101.781 61.9523 101.36 62.4433 101.606 60.6687C101.909 58.4992 101.425 53.9875 96.5635 52.136C96.3906 52.2149 96.1906 52.2207 95.9593 52.1211C95.1592 51.7769 94.9715 50.7888 94.7632 49.6925C94.6528 49.1117 94.5367 48.5006 94.3207 47.9386Z" fill="black"/>
<path d="M95.8873 66.6794L107.337 69.5705L99.4843 108.448L83.6028 104.438L95.8873 66.6794Z" fill="black"/>
<path fill-rule="evenodd" clip-rule="evenodd" d="M12.264 51.3604C10.0555 49.4645 7.5163 49.0907 6.08729 50.2087C4.50296 51.4476 5.25822 52.9273 5.73307 53.2522C7.37613 54.378 8.97004 55.5739 10.5104 56.8366C12.1211 58.1461 12.6996 59.834 12.6996 59.834C12.9959 60.546 18.312 71.6337 29.8153 68.7293C41.3185 65.8249 40.2654 55.3177 39.4398 52.0479C38.6142 48.778 38.141 46.9037 37.7003 41.963L37.8496 34.908C37.8669 33.7054 36.9826 32.7354 35.4894 32.6961C33.9962 32.6567 33.0625 33.6359 33.0441 34.8388L32.9593 42.3261C32.6817 47.4891 31.4706 46.4962 31.0482 41.9127L29.8739 29.9243C29.7582 28.6859 28.6689 27.7825 27.2749 27.9052C25.8812 28.0291 24.972 29.1347 25.0876 30.3732L26.4679 43.4669C26.8001 45.813 25.9713 47.2862 25.0085 44.1749L20.2866 28.7514C19.9205 27.5911 18.7519 27.0311 17.4252 27.4206C16.0986 27.8101 15.4355 29.0023 15.7996 30.1644L20.4667 45.2089L20.467 45.21C21.5459 48.3986 20.6129 49.1893 19.3133 46.4616L13.18 34.1739C12.6481 33.1422 11.3932 32.7118 10.0478 33.4195C8.7023 34.1273 8.37498 35.3388 8.90569 36.3708L15.7195 49.9105C16.3345 51.2937 16.6756 52.3757 16.791 53.1802C18.4048 53.0493 20.1072 53.2196 22.1064 54.3587C24.9504 55.9782 26.1073 58.149 26.4897 59.7427C26.7979 61.0278 26.6472 61.7225 25.9592 59.8767C25.1191 57.6195 22.2962 53.5059 16.6253 54.2516C16.4992 54.4182 16.3087 54.5283 16.0328 54.5526C15.0789 54.6371 14.3815 53.7789 13.6077 52.8267C13.1978 52.3223 12.7664 51.7914 12.264 51.3604Z" fill="black"/>
<path d="M23.562 68.6786L36.1509 65.5001L48.8446 107.221L31.3826 111.63L23.562 68.6786Z" fill="black"/>
</g>
<path d="M147.01 76.48V40.18H133V32.08H170.77V40.18H156.79V76.48H147.01ZM179.896 77.08C176.536 77.08 173.916 76.21 172.036 74.47C170.176 72.71 169.246 70.42 169.246 67.6C169.246 64.5 170.316 62.08 172.456 60.34C174.616 58.6 178.096 57.57 182.896 57.25L189.796 56.68L190.816 61.96L183.856 62.53C182.016 62.67 180.686 63.09 179.866 63.79C179.066 64.49 178.666 65.45 178.666 66.67C178.666 67.87 179.036 68.8 179.776 69.46C180.516 70.1 181.596 70.42 183.016 70.42C183.896 70.42 184.796 70.27 185.716 69.97C186.636 69.65 187.476 69.11 188.236 68.35V56.35C188.236 54.85 187.986 53.67 187.486 52.81C187.006 51.95 186.216 51.34 185.116 50.98C184.036 50.6 182.586 50.41 180.766 50.41C179.506 50.41 178.076 50.52 176.476 50.74C174.876 50.94 173.346 51.27 171.886 51.73V44.53C173.486 44.07 175.236 43.73 177.136 43.51C179.056 43.27 180.836 43.15 182.476 43.15C185.956 43.15 188.806 43.58 191.026 44.44C193.266 45.3 194.916 46.74 195.976 48.76C197.036 50.76 197.566 53.49 197.566 56.95V76.48H189.706L189.046 73.21H188.596C187.616 74.55 186.366 75.53 184.846 76.15C183.326 76.77 181.676 77.08 179.896 77.08ZM204.442 76.48V28H213.982V76.48H204.442ZM243.521 76.48L231.911 59.62L242.681 43.66H252.881L241.601 60.7V58.18L253.931 76.48H243.521ZM229.871 63.46V55.81H235.301V63.46H229.871ZM221.141 76.48V28H230.681V76.48H221.141ZM256.532 76.48V43.66H266.102V76.48H256.532ZM261.302 38.89C259.302 38.89 257.812 38.45 256.832 37.57C255.872 36.69 255.392 35.47 255.392 33.91C255.392 32.31 255.872 31.08 256.832 30.22C257.812 29.34 259.302 28.9 261.302 28.9C263.322 28.9 264.812 29.34 265.772 30.22C266.732 31.08 267.212 32.31 267.212 33.91C267.212 35.47 266.732 36.69 265.772 37.57C264.812 38.45 263.322 38.89 261.302 38.89ZM287.841 77.08C283.881 77.08 280.831 76.1 278.691 74.14C276.571 72.16 275.511 69.03 275.511 64.75V43.66L277.251 32.08H285.051V63.25C285.051 65.51 285.471 67.07 286.311 67.93C287.171 68.79 288.551 69.22 290.451 69.22C290.971 69.22 291.501 69.19 292.041 69.13C292.601 69.05 293.221 68.95 293.901 68.83V76.39C293.041 76.57 292.071 76.73 290.991 76.87C289.931 77.01 288.881 77.08 287.841 77.08ZM270.171 51.19V43.66H293.691V51.19H270.171Z" fill="black"/>
</svg>